<svg width="25" height="24" viewBox="0 0 25 24" fill="none" xmlns="http://www.w3.org/2000/svg">
<path d="M22.5868 11.6C20.5668 6.91 16.7668 4 12.6668 4C8.56681 4 4.76681 6.91 2.74681 11.6C2.69175 11.7262 2.66333 11.8623 2.66333 12C2.66333 12.1377 2.69175 12.2738 2.74681 12.4C4.76681 17.09 8.56681 20 12.6668 20C16.7668 20 20.5668 17.09 22.5868 12.4C22.6419 12.2738 22.6703 12.1377 22.6703 12C22.6703 11.8623 22.6419 11.7262 22.5868 11.6ZM12.6668 18C9.49681 18 6.49681 15.71 4.76681 12C6.49681 8.29 9.49681 6 12.6668 6C15.8368 6 18.8368 8.29 20.5668 12C18.8368 15.71 15.8368 18 12.6668 18ZM12.6668 8C11.8757 8 11.1023 8.2346 10.4445 8.67412C9.78674 9.11365 9.27405 9.73836 8.9713 10.4693C8.66855 11.2002 8.58933 12.0044 8.74367 12.7804C8.89801 13.5563 9.27898 14.269 9.83839 14.8284C10.3978 15.3878 11.1105 15.7688 11.8865 15.9231C12.6624 16.0775 13.4666 15.9983 14.1975 15.6955C14.9285 15.3928 15.5532 14.8801 15.9927 14.2223C16.4322 13.5645 16.6668 12.7911 16.6668 12C16.6668 10.9391 16.2454 9.92172 15.4952 9.17157C14.7451 8.42143 13.7277 8 12.6668 8ZM12.6668 14C12.2713 14 11.8846 13.8827 11.5557 13.6629C11.2268 13.4432 10.9704 13.1308 10.8191 12.7654C10.6677 12.3999 10.6281 11.9978 10.7052 11.6098C10.7824 11.2219 10.9729 10.8655 11.2526 10.5858C11.5323 10.3061 11.8887 10.1156 12.2766 10.0384C12.6646 9.96126 13.0667 10.0009 13.4322 10.1522C13.7976 10.3036 14.11 10.56 14.3298 10.8889C14.5495 11.2178 14.6668 11.6044 14.6668 12C14.6668 12.5304 14.4561 13.0391 14.081 13.4142C13.706 13.7893 13.1972 14 12.6668 14Z" fill="#60A3BC"/>
</svg>
